<svg xmlns="http://www.w3.org/2000/svg" viewBox="0 0 300 300"><style>
      .logo-fill { fill: rgba(255, 64, 39, 1); }
      .bg-fill { fill: rgba(238, 222, 189, 1); }

      @media (prefers-color-scheme: dark) {
        .logo-fill { fill: rgba(238, 222, 189, 1); }
        .bg-fill { fill: rgba(0, 0, 0, 1); }
      }
    </style><rect width="300" height="300" class="logo-fill"/><defs><symbol id="chevron-1767771304835" viewBox="0 0 64 60"><path d="M26.0025 15.6883C26.0025 16.4536 25.9292 16.5302 25.27 16.6067C24.4643 16.6067 23.6586 16.5302 23.0726 15.8414C22.4867 15.2291 21.9739 14.6934 21.4612 14.0812C21.095 13.622 20.802 13.0863 20.509 12.6271C20.2893 12.321 20.0695 12.0914 19.923 11.8618C19.7033 11.5557 19.63 11.173 19.4103 10.8669C19.3371 10.7138 19.2638 10.4842 19.1173 10.3312C18.5313 9.48935 17.9454 8.64751 17.2862 7.80567C16.9932 7.42302 16.7734 6.96384 16.4804 6.58118C16.2607 6.27506 16.041 5.96894 15.748 5.66282C15.5282 5.35669 15.3085 5.1271 15.0155 4.89751C14.6493 4.59139 14.576 4.59139 14.2098 4.89751C13.6238 5.35669 13.1844 5.89241 12.8181 6.50465C12.7449 6.65771 12.5984 6.73424 12.5251 6.88731C11.6462 7.57608 11.0602 8.49445 10.4742 9.41282C9.96151 10.1781 9.44879 10.8669 8.93606 11.6322C8.93606 11.7087 8.78957 11.8618 8.71633 11.9383C8.42334 12.3975 8.13035 12.7036 7.69088 13.0098C7.61763 13.0098 7.47114 13.1628 7.47114 13.3159C7.32464 13.8516 7.1049 14.3873 6.73867 14.77C6.37244 15.1526 6.00621 15.6883 5.63998 16.1475C5.12725 16.8363 4.54128 17.6016 4.02855 18.2904C3.88206 18.52 3.73557 18.8261 3.51583 19.0557C3.22284 19.5149 2.85661 19.5914 2.34389 19.5149C1.83116 19.3618 1.31844 19.2087 0.805711 19.2087C0.439479 19.2087 0.219739 18.8261 0 18.5965C0 18.5965 0 18.4434 0 18.3669C0.292986 17.9077 0.512725 17.4485 0.805711 16.9893C1.24519 16.3771 1.68467 15.7649 2.0509 15.1526C2.12415 14.9996 2.27064 14.8465 2.34389 14.77C2.78336 14.1577 3.22284 13.622 3.73557 13.0098C4.1018 12.5506 4.46803 12.1679 4.76102 11.7087C5.27374 10.9434 5.78647 10.1781 6.29919 9.41282C6.51893 9.1067 6.73867 8.80057 6.95841 8.49445C7.17815 8.18833 7.39789 7.8822 7.69088 7.57608C8.2036 7.04037 8.64308 6.42812 9.08256 5.81588C9.59528 5.1271 10.0348 4.43833 10.5475 3.82608C10.8405 3.44343 11.2067 3.21384 11.4997 2.90771C11.8659 2.60159 12.2322 2.29547 12.6716 2.06588C13.0379 1.83629 13.3309 1.60669 13.7703 1.68322C14.0633 1.68322 14.4295 1.68322 14.7225 1.68322C15.162 1.68322 15.5282 1.68322 15.9677 1.91282C16.2607 2.06588 16.5537 2.06588 16.8467 2.21894C17.1397 2.372 17.4327 2.60159 17.7256 2.83118C18.3116 3.29037 18.8243 3.90261 19.2638 4.51486C19.7033 5.28016 20.216 5.96894 20.6555 6.65771C21.3147 7.65261 21.9739 8.72404 22.6331 9.71894C22.8529 10.0251 23.1459 10.2547 23.2924 10.5608C23.7318 11.2496 24.1713 12.0149 24.6108 12.7036C24.7573 12.9332 24.977 13.1628 25.1235 13.4689C25.27 13.9281 25.7095 14.2342 25.7827 14.77C25.856 15.1526 26.0757 15.4587 26.0025 15.7649V15.6883Z" class="logo-fill"/><path d="M63.2103 -0.000503227C63.2103 -0.000503227 62.6243 -0.000503227 62.3313 -0.000503227C62.3313 -0.000503227 62.2581 -0.000503227 62.1848 -0.000503227C62.1848 -0.000503227 62.2581 -0.000503227 62.3313 0.0760274C62.5511 0.0760274 62.8441 0.0760274 63.0638 0.0760274C63.5765 0.0760274 63.8695 0.38215 63.8695 0.917864C63.8695 1.45358 63.723 1.83623 63.3568 2.21888C62.9173 2.67807 62.6243 3.21378 62.1848 3.67297C61.3791 4.59133 60.7199 5.58623 59.9874 6.5046C59.548 7.11684 59.0352 7.72909 58.5958 8.34133C58.2295 8.87705 57.8633 9.48929 57.4238 10.025C57.0576 10.5607 56.6914 11.0199 56.3984 11.5556C55.9589 12.3209 55.4462 13.0097 54.8602 13.6219C54.7137 13.775 54.5672 13.9281 54.4207 14.0046C54.0545 14.3107 53.8347 14.6934 53.615 15.2291C53.4685 15.5352 53.2488 15.7648 53.029 15.9944C52.5163 16.4536 51.9303 16.9128 51.3444 17.3719C51.3444 17.3719 51.1979 17.4485 51.1246 17.4485C50.7584 17.4485 50.3189 17.4485 49.9527 17.3719C49.8062 17.3719 49.6597 17.3719 49.5132 17.3719C48.7807 17.525 48.1948 17.3719 47.682 16.6832C47.3158 16.1475 47.0228 15.6117 46.8031 14.9995C46.6566 14.6934 46.4369 14.3873 46.2904 14.0046C45.9241 13.4689 45.6311 12.8566 45.2649 12.3209C44.8987 11.7852 44.5324 11.326 44.2395 10.8668C43.7267 10.1015 43.2873 9.41276 42.7745 8.64746C42.4816 8.18827 42.3351 7.65256 42.1153 7.19337C41.8223 6.58113 41.5293 6.04542 41.0166 5.58623C40.6504 5.28011 40.7236 4.74439 40.6504 4.36174C40.6504 4.28521 40.6504 4.13215 40.6504 4.05562C40.6504 3.44337 41.0166 3.36684 41.6758 3.36684C42.1886 3.36684 42.7013 3.36684 43.214 3.36684C43.507 3.36684 43.7267 3.36684 43.8732 3.59644C44.2395 4.05562 44.6057 4.5148 44.8987 5.05052C45.1184 5.35664 45.2649 5.73929 45.4114 6.12195C45.6311 6.5046 45.9241 6.88725 46.1439 7.34644C46.4369 7.88215 46.7298 8.41786 47.0961 8.95358C47.3891 9.48929 47.7553 9.94848 48.0483 10.4842C48.268 10.7903 48.4878 11.173 48.6342 11.5556C48.9272 12.1679 49.2202 12.7801 49.5132 13.4689C49.5132 13.5454 49.6597 13.6219 49.7329 13.775C49.8062 13.8515 49.8794 13.9281 50.0259 13.775C50.4654 13.3924 50.9049 13.0097 51.1979 12.474C51.6374 11.7852 52.1501 11.0964 52.5896 10.4077C52.9558 9.87195 53.3953 9.2597 53.7615 8.72399C54.201 8.11174 54.5672 7.4995 54.9334 6.88725C55.4462 6.12195 55.9589 5.43317 56.5449 4.66786C57.0576 4.05562 57.5703 3.44337 58.083 2.83113C58.7423 1.91276 59.548 1.07093 60.3537 0.305619C60.5734 0.0760274 60.7932 -0.0770338 61.1594 -0.0770338C61.2326 -0.0770338 61.3791 -0.0770338 61.4524 -0.0770338V-0.153564C61.4524 -0.153564 61.3791 -0.153564 61.3059 -0.153564C61.3059 -0.153564 61.3059 -0.153564 61.3791 -0.153564C61.7454 -0.153564 62.0384 -0.153564 62.4046 -0.153564C62.5511 -0.153564 62.7708 -0.153564 62.9173 -0.153564L63.2103 -0.000503227Z" class="logo-fill"/><path d="M37.6491 45.536C38.3083 45.536 38.8211 45.689 39.407 45.9951C39.993 46.3778 40.5057 46.837 40.9452 47.3727C41.3114 47.8319 41.6044 48.3676 41.9706 48.9033C42.3369 49.439 42.7031 49.8982 43.0693 50.4339C43.2891 50.74 43.5088 51.1227 43.7286 51.4288C44.0948 51.888 44.461 52.3472 44.754 52.8064C45.1202 53.3421 45.4132 53.9543 45.7062 54.49C45.7795 54.6431 45.926 54.8727 46.0724 55.0258C46.2922 55.3319 46.4387 55.638 46.6584 55.9441C46.8782 56.2502 47.1711 56.3268 47.4641 56.0207C48.4163 55.1023 49.2953 54.1074 50.1742 53.1125C50.8335 52.4237 51.4927 51.6584 52.2251 50.9696C52.6646 50.5104 53.1773 50.0513 53.5436 49.5155C54.2028 48.5206 55.0818 47.6788 55.8875 46.837C56.4734 46.1482 57.1327 45.6125 57.7919 45.0002C58.0849 44.6941 58.4511 44.388 58.8173 44.2349C59.2568 44.0053 59.6963 44.0053 60.1358 44.2349C60.1358 44.2349 60.209 44.2349 60.2822 44.2349C60.795 44.2349 60.9415 44.6941 61.1612 45.0002C61.1612 45.0768 61.1612 45.3064 61.1612 45.3829C60.9415 45.9186 60.5752 46.3778 60.1358 46.7604C59.7695 47.1431 59.4765 47.6023 59.1103 47.9849C58.5976 48.5972 58.0849 49.2094 57.6454 49.8217C57.2791 50.2809 56.9129 50.74 56.5467 51.1992C56.2537 51.7349 55.8142 52.1941 55.3015 52.5768C54.9353 52.8829 54.6423 53.3421 54.276 53.7247C53.9098 54.1074 53.6168 54.49 53.2506 54.8727C52.8844 55.2553 52.4449 55.638 52.1519 56.0207C51.6392 56.7094 50.98 57.2451 50.4672 57.8574C50.0278 58.3931 49.515 58.9288 48.9291 59.3115C48.5628 59.5411 48.1233 59.8472 47.6106 59.7707C47.5374 59.7707 47.4641 59.7707 47.3909 59.7707C46.8782 59.388 46.2922 59.4645 45.7062 59.4645C45.5597 59.4645 45.34 59.4645 45.1935 59.4645C44.8273 59.4645 44.6075 59.4645 44.461 59.0819C44.3145 58.7758 44.168 58.4696 44.0215 58.1635C43.7286 57.6278 43.4356 57.0921 43.1426 56.6329C42.9228 56.2502 42.7031 55.8676 42.4834 55.4849C42.4101 55.3319 42.3369 55.2553 42.2636 55.1023C41.9706 54.7962 41.7509 54.4135 41.4579 54.1074C41.0184 53.4951 40.5057 52.8064 40.0662 52.1941C39.8465 51.888 39.6268 51.5053 39.407 51.1227C39.3338 50.9696 39.2605 50.74 39.1873 50.5104C39.0408 50.1278 38.8211 49.9747 38.5281 49.7451C38.1618 49.439 37.9421 49.0564 37.6491 48.6737C37.4294 48.2911 37.2096 47.8319 36.9166 47.5258C36.4039 47.0666 36.4772 46.4543 36.6969 45.8421C36.9166 45.2298 37.3561 45.2298 37.7956 45.3064L37.6491 45.536Z" class="logo-fill"/><path d="M38.0869 23.3419C38.0869 23.3419 38.4531 23.3419 38.6728 23.3419C39.332 23.3419 39.7715 23.5715 40.211 24.1072C40.4307 24.4133 40.797 24.7195 41.09 25.1021C41.5294 25.6378 42.0422 26.097 42.4816 26.6327C42.7746 26.9389 42.9944 27.398 43.2141 27.7042C43.5071 28.1633 43.8733 28.546 44.3128 28.8521C44.5325 29.0052 44.7523 29.2348 44.8988 29.4644C45.4847 30.2297 46.0707 30.995 46.6567 31.7603C47.2427 32.5256 47.9019 33.2909 48.5611 34.0562C48.8541 34.4388 49.0006 34.4388 49.2936 34.0562C49.733 33.597 50.0993 33.1378 50.5388 32.6786C50.8317 32.3725 51.0515 32.0664 51.3445 31.7603C51.8572 31.2246 52.3699 30.6889 52.8094 30.1531C53.2489 29.6174 53.6883 29.0052 54.2011 28.4695C54.5673 28.0103 55.08 27.5511 55.4463 27.0919C55.8125 26.7093 56.0322 26.2501 56.3985 25.8674C56.8379 25.4082 57.2042 24.8725 57.6437 24.4899C57.9366 24.2603 58.3761 24.0307 58.8156 24.1072C59.1818 24.1072 59.5481 24.1072 59.9143 24.1072C60.0608 24.1072 60.2073 24.1072 60.2805 24.1072C60.72 24.1837 60.9397 24.5664 60.72 25.0256C60.5003 25.5613 60.2073 26.0205 59.841 26.5562C59.0353 27.8572 58.0099 28.8521 57.0577 30.0001C56.6182 30.5358 56.252 31.0715 55.8125 31.6072C55.2265 32.296 54.6406 32.9082 54.0546 33.597C53.4686 34.2093 52.8826 34.898 52.3699 35.5103C51.8572 36.1225 51.3445 36.6582 50.612 36.8878C50.1725 37.0409 49.8063 37.347 49.2936 37.2705C49.0738 37.2705 48.8541 37.4235 48.6343 37.4235C48.3414 37.4235 48.0484 37.4235 47.7554 37.4235C47.2427 37.347 46.6567 37.194 46.2172 36.8113C45.9242 36.5817 45.7045 36.2756 45.4847 35.9695C44.972 35.2042 44.4593 34.3623 43.8001 33.7501C43.4338 33.3674 43.1409 32.9082 42.7746 32.4491C42.2619 31.8368 41.6759 31.3011 41.1632 30.6889C40.797 30.2297 40.4307 29.694 40.0645 29.1582C39.4785 28.3164 38.8193 27.6276 38.1601 27.0154C37.5741 26.4797 37.1347 25.8674 36.7684 25.1786C36.6219 24.8725 36.3289 24.5664 36.4022 24.1837C36.4022 23.7246 36.8417 23.2654 37.2811 23.2654C37.5741 23.2654 37.7939 23.2654 38.0869 23.2654V23.3419Z" class="logo-fill"/><path d="M11.8659 44.9238C12.6716 44.8473 13.4041 45.0769 14.1365 45.4596C14.6493 45.6892 15.0887 45.9953 15.5282 46.3014C16.9932 47.2198 18.0919 48.5208 19.337 49.7453C19.4103 49.8218 19.4835 49.8983 19.63 49.9749C20.3625 50.5106 20.802 51.2759 21.4612 51.8881C21.6809 52.1177 21.9007 52.2708 22.1204 52.4238C22.1937 52.4238 22.3401 52.5769 22.3401 52.73C22.4134 53.1891 22.7796 53.4953 23.0726 53.8779C23.2191 54.031 23.2923 54.1075 23.4388 54.2606C24.0981 54.7198 24.1713 55.4851 24.3178 56.1738C24.3178 56.4034 24.1713 56.7096 23.9516 56.7861C23.5853 56.8626 23.2191 57.0922 22.7796 57.0922C22.1937 57.0922 21.6809 56.7861 21.3147 56.4034C20.6555 55.7147 19.9963 54.9494 19.2638 54.3371C18.7511 53.9545 18.3116 53.4187 17.7989 52.9596C16.8467 52.0412 16.041 51.1228 15.3085 50.0514C15.0887 49.7453 14.7225 49.5157 14.4295 49.2861C13.9168 48.98 13.5506 48.5973 13.2576 48.0616C13.1111 47.6789 12.8181 47.6789 12.5251 47.7555C11.8659 47.9085 11.4264 48.3677 10.9869 48.8269C10.4742 49.3626 9.9615 49.8218 9.37553 50.3575C9.15579 50.5106 9.00929 50.6636 8.8628 50.8932C8.56982 51.2759 8.35008 51.7351 8.13034 52.1943C7.83735 52.73 7.61761 53.2657 7.25138 53.7249C6.59216 54.5667 5.8597 55.332 5.20048 56.1738C4.761 56.7096 4.39477 57.3218 4.02854 57.8575C3.58906 58.4698 3.00309 58.6994 2.27062 58.6228C2.12413 58.6228 1.97764 58.6228 1.90439 58.6228C1.68465 58.5463 1.46491 58.6228 1.24517 58.6994C0.805694 59.0055 0.366215 58.6994 0.292969 58.1636C0.292969 57.8575 0.292969 57.5514 0.292969 57.3218C0.292969 57.3218 0.292969 57.1687 0.292969 57.0922C0.87894 56.633 1.17193 55.9443 1.53816 55.332C1.7579 54.8728 2.12413 54.4902 2.56361 54.2606C2.7101 54.184 2.78335 54.031 2.85659 53.9545C3.58906 52.6534 4.46802 51.5055 5.42022 50.434C5.78645 49.9749 6.07944 49.4391 6.37242 48.9034C6.73865 48.2912 7.10489 47.6789 7.69086 47.2963C8.20358 46.9136 8.71631 46.4545 9.08254 45.9953C9.74176 45.3065 10.4742 45.0004 11.3532 45.0004C11.4997 45.0004 11.6462 45.0004 11.7927 45.0004L11.8659 44.9238Z" class="logo-fill"/><path d="M13.1862 23.9537C13.7722 23.9537 14.2117 23.9537 14.7244 24.1833C15.0906 24.3364 15.6033 24.4129 15.9696 24.6425C16.5556 24.9486 17.0683 25.3313 17.5078 25.867C18.167 26.6323 18.8994 27.3211 19.5587 28.0864C19.9249 28.469 20.1446 28.8517 20.4376 29.3109C20.4376 29.3109 20.4376 29.4639 20.4376 29.5405C20.4376 29.6935 20.5109 29.7701 20.7306 29.7701C20.8038 29.7701 20.8771 29.7701 20.9503 29.7701C21.3166 30.2293 21.756 30.6884 22.1223 31.0711C22.2688 31.3007 22.4885 31.4537 22.5618 31.7599C22.7083 32.1425 23.0012 32.4486 23.1477 32.7548C23.3675 33.1374 23.5872 33.5966 23.8802 33.9793C24.0267 34.2088 24.0267 34.3619 24.0267 34.5915C24.0267 35.0507 23.7337 35.3568 23.3675 35.5099C23.2942 35.5099 23.221 35.5864 23.0745 35.6629C23.0012 35.6629 22.8547 35.7395 22.7815 35.6629C22.4153 35.5099 21.9758 35.4333 21.6096 35.2037C21.1701 34.8976 20.8771 34.515 20.4376 34.1323C20.1446 33.9027 19.8516 33.5966 19.5587 33.367C19.0459 32.9844 18.6065 32.3721 18.2402 31.8364C17.9472 31.3772 17.6542 30.8415 17.288 30.3823C17.0683 30.0762 16.7753 29.8466 16.5556 29.6935C16.1893 29.3874 15.8963 29.0813 15.7498 28.6221C15.6033 28.316 15.4569 28.0099 15.0906 27.8568C14.5779 27.6272 14.1384 27.2446 13.6257 26.9384C13.406 26.7854 13.3327 26.7854 13.1862 26.9384C12.6735 27.4742 12.1608 28.0099 11.648 28.5456C11.1353 29.0813 10.6226 29.6935 10.1831 30.3058C9.89013 30.765 9.45065 31.0711 9.08442 31.4537C8.86468 31.6833 8.64494 31.9895 8.4252 32.2956C7.98572 32.8313 7.54624 33.2905 7.10676 33.8262C6.81378 34.1323 6.59404 34.515 6.3743 34.8211C6.00807 35.2803 5.86157 35.816 5.4221 36.1986C5.4221 36.1986 5.2756 36.2752 5.2756 36.3517C5.2756 36.6578 5.05586 36.8109 4.83612 36.9639C4.46989 37.117 4.25015 37.4231 3.95717 37.7293C3.73743 37.9588 3.59093 37.9588 3.29795 37.8823C3.00496 37.8058 2.78522 37.7293 2.49224 37.6527C1.83302 37.4997 1.61328 37.1935 1.61328 36.5813C1.61328 35.8925 1.90627 35.2803 2.34575 34.7446C2.56548 34.515 2.78522 34.1323 3.00496 33.8262C3.44444 33.1374 3.95717 32.4486 4.46989 31.7599C4.76288 31.3772 5.05586 31.0711 5.34885 30.6884C6.22781 29.4639 7.18001 28.316 8.27871 27.2446C8.93792 26.5558 9.67039 25.7905 10.3296 25.1017C10.6958 24.719 11.1353 24.3364 11.5748 24.1833C12.0875 23.9537 12.6735 23.6476 13.2595 23.8772L13.1862 23.9537Z" class="logo-fill"/></symbol></defs><use href="#chevron-1767771304835" x="37.5" y="37.5" width="225" height="225" fill="rgba(255, 64, 39, 1)"/></svg>